<?xml version="1.0" encoding="UTF-8"?>
<svg width="75pt" height="75pt" version="1.1" viewBox="0 0 75 75" xmlns="http://www.w3.org/2000/svg">
 <g id="surface564300">
  <path d="m65.543 62.355c5.8789-6.6211 9.457-15.328 9.457-24.855 0-9.9141-3.875-18.934-10.18-25.648-0.003906-0.007812-0.011718-0.011718-0.015624-0.015624-6.5664-6.9805-15.77-11.449-26.004-11.801l-0.73438-0.023437c-0.1875-0.0039063-0.375-0.011719-0.56641-0.011719s-0.37891 0.0078125-0.56641 0.011719l-0.72656 0.019531c-10.234 0.35156-19.438 4.8203-26.004 11.801-0.003906 0.007813-0.011719 0.007813-0.015625 0.015625v0.003906c-6.3125 6.7148-10.188 15.734-10.188 25.648 0 9.5273 3.5781 18.234 9.457 24.855 0.007813 0.011719 0.007813 0.023437 0.015625 0.035156 0.023438 0.03125 0.058594 0.046875 0.082032 0.078125 6.6016 7.3828 16.074 12.137 26.648 12.496l0.72656 0.019531c0.19141 0.007813 0.37891 0.015625 0.57031 0.015625s0.37891-0.007812 0.56641-0.011719l0.72656-0.019531c10.586-0.36328 20.066-5.1289 26.672-12.523 0.015625-0.023437 0.042968-0.027343 0.058594-0.050781 0.011718-0.015625 0.011718-0.027343 0.019531-0.039062zm-62.926-23.562h15.52c0.14453 5.4805 1.2188 10.809 3.1211 15.797-3.6758 1.332-7.1953 3.1133-10.488 5.3438-4.8398-5.7656-7.8555-13.109-8.1523-21.141zm8.8633-24.539c3.2188 2.0938 6.6445 3.7695 10.215 5.0195-2.1875 5.3125-3.3984 11.035-3.5547 16.934h-15.523c0.30859-8.4141 3.6055-16.074 8.8633-21.953zm60.902 21.953h-15.523c-0.15625-5.8984-1.3672-11.621-3.5547-16.934 3.5742-1.25 7-2.9258 10.215-5.0195 5.2578 5.8789 8.5547 13.539 8.8633 21.953zm-36.176-16.859c-3.7383-0.10547-7.4062-0.66406-10.953-1.6602 2.6211-5.375 6.3203-10.227 10.953-14.27zm0 2.5859v14.273h-15.48c0.16016-5.6211 1.3398-11.074 3.4492-16.133 3.8828 1.1289 7.9219 1.75 12.031 1.8594zm2.5859 0c4.1094-0.10938 8.1484-0.73047 12.035-1.8594 2.1094 5.0547 3.2891 10.508 3.4492 16.133h-15.484zm0-2.5859v-15.93c4.6328 4.0391 8.332 8.8945 10.953 14.27-3.543 0.99609-7.2148 1.5547-10.953 1.6602zm13.461-2.4453c-2.4844-5.2031-5.9297-9.9453-10.199-14.012 7.5742 0.99219 14.387 4.4141 19.633 9.4648-2.9805 1.8906-6.1406 3.4102-9.4336 4.5469zm-29.508 0c-3.293-1.1367-6.4531-2.6562-9.4336-4.5469 5.2461-5.0469 12.062-8.4727 19.633-9.4648-4.2656 4.0664-7.7148 8.8086-10.199 14.012zm-2.0195 21.891h15.48v12.98c-4.2773 0.11328-8.4648 0.78125-12.492 1.9922-1.8203-4.7266-2.8438-9.7773-2.9883-14.973zm15.48 15.566v17.223c-4.957-4.3242-8.8438-9.582-11.488-15.41 3.707-1.0938 7.5586-1.7031 11.488-1.8125zm2.5859 17.223v-17.223c3.9297 0.10938 7.7812 0.71875 11.488 1.8086-2.6445 5.832-6.5312 11.086-11.488 15.414zm0-19.809v-12.98h15.48c-0.14453 5.1953-1.168 10.246-2.9883 14.973-4.0273-1.2109-8.2148-1.8789-12.492-1.9922zm18.066-12.98h15.52c-0.29297 8.0312-3.3086 15.375-8.1562 21.141-3.293-2.2266-6.8125-4.0117-10.488-5.3438 1.9102-4.9883 2.9805-10.316 3.125-15.797zm-44.328 23.078c3.0586-2.0312 6.3164-3.668 9.7188-4.8906 2.5156 5.6367 6.125 10.777 10.695 15.125-7.9531-1.0391-15.07-4.7617-20.414-10.234zm29.523 10.234c4.5703-4.3516 8.1797-9.4883 10.695-15.125 3.4023 1.2227 6.6602 2.8555 9.7188 4.8906-5.3438 5.4727-12.461 9.1953-20.414 10.234z"/>
 </g>
</svg>
