<?xml version="1.0" encoding="UTF-8"?>
<svg width="75pt" height="75pt" version="1.1" viewBox="0 0 75 75" xmlns="http://www.w3.org/2000/svg">
 <g id="surface107561">
  <path d="m69.641 3.75h-64.281c-0.82422 0-1.4961 0.66797-1.4961 1.4961v45.598c0 0.82422 0.66797 1.4961 1.4961 1.4961h30.645v8.7773l-7.582 7.582c-0.58594 0.58203-0.58594 1.5312 0 2.1133 0.58203 0.58594 1.5312 0.58594 2.1133 0l5.4688-5.4688v4.4141c0 0.82422 0.67188 1.4922 1.4961 1.4922s1.4961-0.66797 1.4961-1.4961v-4.4141l5.4688 5.4688c0.29297 0.29688 0.67578 0.44141 1.0547 0.44141 0.38281 0 0.76562-0.14453 1.0586-0.4375 0.58594-0.58203 0.58594-1.5312 0-2.1133l-7.582-7.5859v-8.7773h30.645c0.82422 0 1.4961-0.66797 1.4961-1.4961v-45.594c0-0.82812-0.67188-1.4961-1.4961-1.4961zm-1.4961 45.598h-61.289v-42.609h61.293v42.609z"/>
  <path d="m32.238 15.555l16.332 10.609c1.2852 0.83594 1.2852 2.9219 0 3.7578l-16.332 10.609c-1.2852 0.83594-2.8945-0.20703-2.8945-1.8789v-21.219c0-1.6719 1.6094-2.7148 2.8945-1.8789z"/>
 </g>
</svg>
