<?xml version="1.0" encoding="UTF-8"?>
<svg fill="#FFFFFF" width="75pt" height="75pt" version="1.1" viewBox="0 0 75 75" xmlns="http://www.w3.org/2000/svg">
 <g id="surface198067">
  <path d="m68.324 33.75v-0.14844c0-0.074218-0.074219-0.22656-0.14844-0.30078v-0.074219l-10.051-17.477c-0.375-0.60156-0.97656-0.97656-1.6484-0.97656h-6.6016v-7.7969c0-1.0508-0.82422-1.9492-1.9492-1.9492h-20.852c-1.0508 0-1.9492 0.82422-1.9492 1.9492v7.8008h-6.6016c-0.67578 0-1.3516 0.375-1.6484 0.97656l-9.9766 17.547v0.074219c-0.14844 0.074219-0.14844 0.14844-0.22266 0.30078v0.14844c0 0.14844-0.074219 0.30078-0.074219 0.44922v33.824c0 1.0508 0.82422 1.9492 1.9492 1.9492h57.977c1.0508 0 1.9492-0.82422 1.9492-1.9492v-33.898c-0.078124-0.14844-0.078124-0.30078-0.15234-0.44922zm-22.273-24.898v7.8008 6.8242h-17.102v-6.8242-7.8008zm-26.402 9.75h5.4766v4.9492h-1.0508c-1.0508 0-1.9492 0.82422-1.9492 1.9492 0 1.0508 0.82422 1.9492 1.9492 1.9492h26.703c1.0508 0 1.9492-0.82422 1.9492-1.9492 0-1.0508-0.82422-1.9492-1.9492-1.9492h-1.0508v-4.9492h5.4766l7.8008 13.727h-51.152zm44.926 47.547h-54.148v-30h54.148z"/>
 </g>
</svg>
