<?xml version="1.0" encoding="UTF-8"?>
<svg fill="#FFFFFF" width="75pt" height="75pt" version="1.1" viewBox="0 0 75 75" xmlns="http://www.w3.org/2000/svg">
 <g id="surface759415">
  <path d="m68.074 18.078c-1.3828-4.4141-3.6328-8.5938-6.8047-12.281-7.7656 2.3711-17.363 1.8477-23.789 0-6.3867 1.8477-16.223 2.3711-23.992 0-3.168 3.6875-5.4102 7.8672-6.7852 12.281zm0.45703 1.5781c5.332 20.141-6.7539 44.457-31.012 49.551-24.289-5.0938-36.535-29.41-31.266-49.551zm-31.031 51.59c-0.007812 0-0.011719 0.003906-0.019531 0.003906v-0.007812c-32.219-6.7617-43.461-45.41-24.48-67.492 8.2656 2.5234 17.684 1.9805 24.48 0.011719v-0.011719c0.007812 0 0.011719 0.003906 0.019531 0.003906s0.011719-0.003906 0.019531-0.003906v0.011719c6.7969 1.9688 16.215 2.5117 24.48-0.011719 18.98 22.082 7.7383 60.73-24.48 67.492v0.007812c-0.007812 0-0.011719-0.003906-0.019531-0.003906z" fill-rule="evenodd"/>
 </g>
</svg>
