<?xml version="1.0" encoding="UTF-8"?>
<svg width="75pt" height="75pt" version="1.1" viewBox="0 0 75 75" xmlns="http://www.w3.org/2000/svg">
 <g id="surface603919">
  <path d="m19.305 3.8711c-3.1172 0-5.6602 2.5391-5.6602 5.6562v55.938c0 3.1172 2.5391 5.6602 5.6602 5.6602h36.395c3.1172 0 5.6562-2.5391 5.6562-5.6602v-42.051c0-1.5078-0.58594-2.9297-1.6562-4l-13.883-13.883c-1.0703-1.0703-2.4922-1.6562-4-1.6562h-22.512zm25.469 3.5898l12.992 12.992h-10.359c-1.4531 0-2.6328-1.1797-2.6328-2.6328zm2.6367 15.094h11.727c0.070312 0.27734 0.11719 0.5625 0.11719 0.85937v42.055c0 1.9609-1.5938 3.5547-3.5547 3.5547h-36.395c-1.9609 0-3.5547-1.5977-3.5547-3.5547v-55.938c0-1.9609 1.5977-3.5547 3.5547-3.5547h22.512c0.29297 0 0.57812 0.046876 0.85547 0.11719v11.727c0 2.6094 2.125 4.7344 4.7383 4.7344z"/>
  <path d="m50.82 42.383h-26.641c-0.58203 0-1.0508 0.46875-1.0508 1.0508 0 0.58203 0.46875 1.0508 1.0508 1.0508h26.633c0.58203 0 1.0508-0.46875 1.0508-1.0508 0.003907-0.58203-0.46484-1.0508-1.043-1.0508z"/>
  <path d="m23.133 32.969c0 0.58203 0.46875 1.0508 1.0508 1.0508h26.633c0.58203 0 1.0508-0.46875 1.0508-1.0508s-0.46875-1.0508-1.0508-1.0508h-26.637c-0.57813 0-1.0469 0.47266-1.0469 1.0508z"/>
  <path d="m50.82 52.84h-26.641c-0.58203 0-1.0508 0.46875-1.0508 1.0508s0.46875 1.0508 1.0508 1.0508h26.633c0.58203 0 1.0508-0.46875 1.0508-1.0508s-0.46484-1.0508-1.043-1.0508z"/>
 </g>
</svg>
