<svg xmlns="http://www.w3.org/2000/svg" xmlns:xlink="http://www.w3.org/1999/xlink" version="1.1" x="0px" y="0px" viewBox="0 0 100 100" style="enable-background:new 0 0 100 100;" xml:space="preserve"><g><path d="M66.7,51.8c0,12-9.8,21.8-21.8,21.8c-12,0-21.8-9.8-21.8-21.8v-4.5h-4v4.5c0,13.5,10.5,24.6,23.8,25.7v9.3h-8.3v4h20.5v-4   h-8.3v-9.3c13.3-1,23.8-12.1,23.8-25.7v-4.5h-4V51.8z"></path><path d="M44.9,69.1c9.8,0,17.8-8,17.8-17.8V25.6c0-9.8-8-17.8-17.8-17.8s-17.8,8-17.8,17.8v25.7C27.1,61.1,35.1,69.1,44.9,69.1z    M31.1,50.3h8.5v-2h-8.5v-3.9h8.5v-2h-8.5v-3.9h8.5v-2h-8.5v-3.9h8.5v-2h-8.5v-3.9h8.5v-2h-8.5c0.5-7.2,6.5-12.8,13.8-12.8   c7.6,0,13.8,6.2,13.8,13.8v25.7c0,7.6-6.2,13.8-13.8,13.8c-7.6,0-13.8-6.2-13.8-13.8V50.3z"></path></g></svg>