<?xml version="1.0" encoding="UTF-8"?>
<svg width="100pt" height="100pt" version="1.1" viewBox="0 0 100 100" xmlns="http://www.w3.org/2000/svg">
 <path d="m42.672 80.199l7.7227 13.961 7.7227-13.961c2.8711-0.79297 5.6445-1.8828 8.1172-3.3672l15.348 4.3555-4.3555-15.348c1.4844-2.4766 2.6719-5.2461 3.3672-8.2188l14.059-7.7188-13.961-7.7227c-0.69141-2.8711-1.8828-5.6445-3.3672-8.2188l4.3555-15.348-15.348 4.3555c-2.4766-1.4844-5.2461-2.6719-8.2188-3.3672l-7.7188-13.957-7.7227 13.961c-2.8711 0.79297-5.6445 1.8828-8.1172 3.3672l-15.348-4.3555 4.3555 15.348c-1.4844 2.4766-2.6719 5.2461-3.3672 8.1172l-14.059 7.8203 13.961 7.7227c0.79297 2.8711 1.8828 5.6445 3.3672 8.1172l-4.3555 15.348 15.348-4.3555c2.5742 1.582 5.2461 2.6719 8.2148 3.4648zm-18.711-30.297c0-14.555 11.781-26.438 26.438-26.438 14.652 0 26.434 11.883 26.434 26.438 0 14.555-11.781 26.438-26.438 26.438-14.652-0.003906-26.434-11.883-26.434-26.438z"/>
</svg>
