<?xml version="1.0" encoding="UTF-8"?>
<svg fill="#FFFFFF" width="75pt" height="75pt" version="1.1" viewBox="0 0 75 75" xmlns="http://www.w3.org/2000/svg">
 <g id="surface14" fill="none" stroke="#FFFFFF" stroke-linecap="round" stroke-linejoin="round" stroke-miterlimit="10">
  <path transform="scale(.75)" d="m40.089 34.167v2.4531c0 1.1406 0.92708 2.0677 2.0677 2.0677s2.0677-0.92708 2.0677-2.0677v-3.724c0-0.8125 0.65625-1.4688 1.4688-1.4688s1.4688 0.65625 1.4688 1.4688v1.1094c0 0.8125 0.65625 1.4688 1.4688 1.4688s1.4688-0.65625 1.4688-1.4688v-3.625c0-0.43229 0.34896-0.78646 0.78646-0.78646 0.43229 0 0.78646 0.34896 0.78646 0.78646v9.1979c0 0.43229 0.34896 0.78646 0.78646 0.78646 0.43229 0 0.78646-0.34896 0.78646-0.78646v-6.4688" stroke-width=".7109"/>
  <path transform="scale(.75)" d="m53.24 29.688v1.1875" stroke-width=".7109"/>
  <path transform="scale(.75)" d="m55.833 29.599v6.3073" stroke-width=".7109"/>
  <path transform="scale(.75)" d="m40.089 29.599v0.68229" stroke-width=".7109"/>
  <path transform="scale(.75)" d="m67.276 25.083c0 1.3125-1.0625 2.375-2.375 2.375h-29.875c-1.3125 0-2.375-1.0625-2.375-2.375s1.0625-2.375 2.375-2.375h29.875c1.3125 0 2.375 1.0625 2.375 2.375z" stroke-width="2"/>
  <path transform="scale(.75)" d="m75.062 51.094c0-1.4167-0.97396-2.5625-2.1979-2.651-0.005208-0.052083-0.005208-0.10417-0.005208-0.15625 0.92708-0.34375 1.599-1.3385 1.599-2.5312 0-1.474-1.026-2.6667-2.2917-2.6667h-0.4375c-2.401-6.526-7.5312-8.7812-7.5312-10.51v-5.125h-28.474v5.125c0 1.724-5.1302 3.9792-7.5312 10.51h-0.35938c-1.2656 0-2.2917 1.1927-2.2917 2.6667 0 1.1615 0.64062 2.1354 1.526 2.5052-0.005208 0.0625-0.005208 0.13021-0.010416 0.1875-1.1875 0.13021-2.1198 1.2552-2.1198 2.6406 0 1.4167 0.97396 2.5625 2.2031 2.651 0.010417 0.14583 0.026042 0.29167 0.041667 0.4375-0.61979 0.47396-1.0365 1.2969-1.0365 2.2448 0 1.2708 0.75 2.3333 1.75 2.599 0.026042 0.14062 0.057292 0.28125 0.083334 0.42188-0.65625 0.45833-1.1094 1.3177-1.1094 2.3125 0 1.474 0.96875 2.6667 2.1667 2.6667h0.098959c0.057291 0.21875 0.11979 0.44271 0.17708 0.66146-0.42188 0.48958-0.69271 1.2031-0.69271 2.0052 0 1.474 0.89583 2.6667 2.0052 2.6667h0.11979c0.052083 0.15625 0.10417 0.30729 0.15625 0.45833-0.49479 0.47917-0.81771 1.2865-0.81771 2.2083 0 1.474 0.83854 2.6667 1.8646 2.6667h0.80208c1.3177 3.1198 2.4792 5.1146 2.9844 5.1146h13.812 0.84896 13.812c0.50521 0 1.6667-2 2.9844-5.1146h0.875c1.0312 0 1.8646-1.1927 1.8646-2.6667 0-0.95312-0.35417-1.7865-0.88021-2.2552 0.046875-0.13542 0.09375-0.27083 0.14062-0.41146h0.19271c1.1042 0 2.0052-1.1927 2.0052-2.6667 0-0.83854-0.29688-1.5781-0.75521-2.0677 0.052083-0.19792 0.10938-0.39583 0.16146-0.59896h0.17188c1.1979 0 2.1667-1.1927 2.1667-2.6667 0-1.0312-0.47917-1.9115-1.1771-2.3594 0.020834-0.11979 0.046875-0.23958 0.072917-0.35938 1.0417-0.22917 1.8281-1.3125 1.8281-2.6198 0-0.97917-0.44792-1.8281-1.1094-2.2917 0.010417-0.13021 0.026042-0.25521 0.036458-0.38542 1.2604-0.03125 2.276-1.2031 2.276-2.6458z" stroke-width="1.9925"/>
  <path transform="scale(.75)" d="m74.458 45.76c0 1.474-1.026 2.6667-2.2917 2.6667h-44.333c-1.2656 0-2.2917-1.1927-2.2917-2.6667 0-1.474 1.026-2.6667 2.2917-2.6667h44.333c1.2656 0 2.2917 1.1927 2.2917 2.6667z" stroke-width="2.2075"/>
  <path transform="scale(.75)" d="m75.062 51.094c0 1.474-1.0521 2.6667-2.349 2.6667h-45.432c-1.2969 0-2.349-1.1927-2.349-2.6667s1.0521-2.6667 2.349-2.6667h45.432c1.2969 0 2.349 1.1927 2.349 2.6667z" stroke-width="2.2346"/>
  <path transform="scale(.75)" d="m73.854 56.427c0 1.474-1 2.6667-2.2344 2.6667h-43.24c-1.2344 0-2.2344-1.1927-2.2344-2.6667 0-1.474 1-2.6667 2.2344-2.6667h43.24c1.2344 0 2.2344 1.1927 2.2344 2.6667z" stroke-width="2.18"/>
  <path transform="scale(.75)" d="m73.13 61.76c0 1.474-0.96875 2.6667-2.1667 2.6667h-41.927c-1.1979 0-2.1667-1.1927-2.1667-2.6667 0-1.474 0.96875-2.6667 2.1667-2.6667h41.927c1.1979 0 2.1667 1.1927 2.1667 2.6667z" stroke-width="2.1467"/>
  <path transform="scale(.75)" d="m71.385 67.094c0 1.474-0.89583 2.6667-2.0052 2.6667h-38.76c-1.1042 0-2.0052-1.1927-2.0052-2.6667s0.89583-2.6667 2.0052-2.6667h38.76c1.1094 0 2.0052 1.1927 2.0052 2.6667z" stroke-width="2.064"/>
  <path transform="scale(.75)" d="m69.927 72.427c0 1.474-0.83854 2.6667-1.8646 2.6667h-36.125c-1.0312 0-1.8646-1.1927-1.8646-2.6667 0-1.474 0.83854-2.6667 1.8646-2.6667h36.12c1.0312 0 1.8698 1.1927 1.8698 2.6667z" stroke-width="1.9925"/>
 </g>
</svg>
