<?xml version="1.0" encoding="UTF-8"?>
<svg fill="#FFFFFF" width="75pt" height="75pt" version="1.1" viewBox="0 0 75 75" xmlns="http://www.w3.org/2000/svg">
 <g id="surface127126">
  <path d="m20.406 53.219l-15.719-15.719 15.719-15.719c0.91406-0.91406 2.3984-0.91406 3.3164 0l3.3125 3.3125c0.91406 0.91406 0.91406 2.3984 0 3.3164l-9.0898 9.0898 9.0898 9.0898c0.91406 0.91406 0.91406 2.3984 0 3.3164l-3.3125 3.3125c-0.91406 0.91797-2.3984 0.91797-3.3164 0z"/>
  <path d="m51.277 53.219l-3.3125-3.3125c-0.91406-0.91406-0.91406-2.3984 0-3.3164l9.0898-9.0898-9.0898-9.0898c-0.91406-0.91406-0.91406-2.3984 0-3.3164l3.3125-3.3125c0.91406-0.91406 2.3984-0.91406 3.3164 0l15.719 15.719-15.719 15.719c-0.91406 0.91406-2.3984 0.91797-3.3164 0z"/>
  <path d="m35.449 65.625h-4.4922c-1.4492 0-2.5508-1.3008-2.3125-2.7305l8.5938-51.562c0.1875-1.1289 1.168-1.957 2.3125-1.957h4.4922c1.4492 0 2.5508 1.3008 2.3125 2.7305l-8.5938 51.562c-0.1875 1.1289-1.168 1.957-2.3125 1.957z"/>
 </g>
</svg>
