<?xml version="1.0" encoding="UTF-8"?>
<svg fill="#FFFFFF" width="100pt" height="100pt" version="1.1" viewBox="0 0 100 100" xmlns="http://www.w3.org/2000/svg">
 <g>
  <path d="m51.703 64.355c-16.789 0-43.789-23.203-46.93-25.953-0.625-0.54688-0.99219-1.3281-1.0195-2.1562s0.28906-1.6328 0.87891-2.2188l29.355-29.367c0.58594-0.58594 1.3984-0.89844 2.2227-0.87891 0.82812 0.027344 1.6094 0.39844 2.1562 1.0234 0.27734 0.31641 6.8984 7.9023 13.422 17.566 9.0234 13.367 13.211 23.824 12.449 31.078l-5.9688-0.625c1.1367-10.844-14.191-31.816-22.34-41.625l-24.762 24.766c9.8984 8.2188 31.074 23.668 41.824 22.312l0.75391 5.9531c-0.66406 0.082031-1.3477 0.125-2.043 0.125z"/>
  <path d="m85.082 96.219c-3.0508 0-5.9141-1.1836-8.0586-3.3242-0.027344-0.027343-0.058594-0.058593-0.085938-0.089843l-27.008-29.277c-1.0938-1.1836-1.0547-3.0195 0.085937-4.1562l9.3945-9.3906c1.1406-1.1406 2.9766-1.1758 4.1562-0.082031l29.273 27.012c0.03125 0.027344 0.058594 0.054688 0.089844 0.085938 4.418 4.4219 4.457 11.566 0.09375 15.93-2.1562 2.1445-4.9492 3.293-7.9414 3.293zm-3.7773-7.5312c1.0078 0.98828 2.3477 1.5312 3.7773 1.5312 1.3867 0 2.6758-0.52344 3.6289-1.4766 2.0469-2.0469 2.0156-5.4258 0.011718-7.4727l-27.109-25.008-5.3203 5.3164z"/>
  <path d="m86.297 83.879c0 3.2656-4.8984 3.2656-4.8984 0s4.8984-3.2656 4.8984 0"/>
 </g>
</svg>
