<?xml version="1.0" encoding="UTF-8"?>
<svg fill="#FFFFFF" width="75pt" height="75pt" version="1.1" viewBox="0 0 75 75" xmlns="http://www.w3.org/2000/svg">
 <g id="surface457272">
  <path d="m38.82 66.578c-0.15234 0-0.30469-0.03125-0.44531-0.097656l-19.668-8.8438c-0.39062-0.17578-0.64062-0.56641-0.64062-0.99219v-20.07l-13.84-8.9414c-0.31641-0.21484-0.49609-0.58594-0.47266-0.96875 0.023438-0.38281 0.25-0.72656 0.59375-0.89844l33.984-17.223c0.32031-0.16406 0.70312-0.15625 1.0156 0.015625l31.305 17.223c0.34375 0.1875 0.55859 0.54688 0.56641 0.9375s-0.19922 0.75391-0.53906 0.95312l-31.305 18.391c-0.33984 0.19922-0.76172 0.19922-1.1016 0.003906l-14.781-7.6914c-0.51953-0.30078-0.69531-0.96875-0.39063-1.4883 0.30078-0.51953 0.96875-0.69531 1.4883-0.39062l14.23 7.3672 29.105-17.098-29.125-16.023-31.828 16.133 12.797 8.2266c0.29688 0.20313 0.47656 0.53906 0.47656 0.89844v19.941l18.582 8.3555 17.688-8.0039v-16.168c0-0.60156 0.48828-1.0898 1.0898-1.0898 0.60156 0 1.0898 0.48828 1.0898 1.0898v16.875c0 0.42969-0.25391 0.82031-0.64453 0.99219l-18.785 8.4922c-0.14062 0.0625-0.29297 0.09375-0.44531 0.09375z"/>
  <path d="m67.059 48.496c-0.60156 0-1.0898-0.48828-1.0898-1.0898v-15.207c0-0.60156 0.48828-1.0898 1.0898-1.0898 0.60156 0 1.0898 0.48828 1.0898 1.0898v15.207c0 0.60156-0.48828 1.0898-1.0898 1.0898z"/>
  <path d="m70.16 45.406c-0.60156 0-1.0898-0.48828-1.0898-1.0898v-12.117c0-0.60156 0.48828-1.0898 1.0898-1.0898 0.60156 0 1.0898 0.48828 1.0898 1.0898v12.117c0 0.60156-0.48828 1.0898-1.0898 1.0898z"/>
  <path d="m63.953 46.234c-0.60156 0-1.0898-0.48828-1.0898-1.0898v-10.863c0-0.60156 0.48828-1.0898 1.0898-1.0898s1.0898 0.48828 1.0898 1.0898v10.863c0 0.60156-0.48828 1.0898-1.0898 1.0898z"/>
 </g>
</svg>
